<svg width="201" height="52" viewBox="0 0 201 52" fill="none" xmlns="http://www.w3.org/2000/svg">
<path d="M18.7374 51.3691C14.5941 51.3795 11.8195 51.3896 11.0606 51.3896C6.41361 51.3896 2.69537 50.2241 1.88094 45.2197C1.65208 43.8015 1.44419 42.3806 1.2579 40.957C0.451456 34.8195 -0.178769 28.5959 0.129967 22.4023C0.35815 17.8084 0.834154 13.2126 1.50497 8.65723L18.7374 51.3691ZM45.0421 0.144531C45.0197 0.161704 44.997 0.178833 44.9747 0.196289C43.6799 1.20533 43.0323 2.41648 43.0323 3.8291C43.0323 5.5109 43.6195 6.86791 44.7931 7.89941C45.9666 8.93082 47.5958 9.44629 49.6798 9.44629C51.7636 9.44622 53.4734 8.94163 54.8087 7.93262C56.1439 6.92357 56.8116 5.6899 56.8116 4.23242C56.8115 2.77503 56.2243 1.49711 55.0509 0.398438C54.9653 0.319931 54.8764 0.244133 54.7852 0.169922C59.1222 0.181597 63.4882 0.191823 67.7315 0.203125V42.2266C67.7315 45.1801 67.6768 47.0261 67.5675 47.7646C67.5237 48.1976 67.469 48.5927 67.4034 48.9492C67.3597 49.2802 67.338 49.6493 67.338 50.0566C67.338 50.4386 67.4805 50.7949 67.7647 51.126C67.8002 51.1673 67.8366 51.2061 67.8741 51.2422C50.6515 51.288 31.3758 51.337 20.2247 51.3652L37.6007 3.75488C37.7783 3.31155 38.0123 2.74527 38.3009 2.05566C38.6117 1.34137 38.7667 0.71279 38.7667 0.170898C38.7667 0.156842 38.7649 0.142776 38.7647 0.128906C40.8067 0.134386 42.9058 0.138778 45.0421 0.144531ZM43.3057 15.333V51.2559H56.3565V15.333H43.3057ZM106.069 0.271484C113.537 0.197655 124.5 -0.0496808 129.81 0.871094C132.826 1.3943 135.582 3.36832 138.222 5.76465C136.919 5.49653 135.547 5.36136 134.105 5.36133C128.692 5.36133 124.196 7.2532 120.616 11.0361C118.958 12.8063 117.648 14.8914 116.688 17.292C115.749 19.6684 115.28 22.3119 115.28 25.2217C115.28 31.1385 117.081 36.0371 120.682 39.917C124.195 43.6756 128.626 45.5556 133.973 45.5557C135.766 45.5557 137.453 45.3413 139.035 44.918C136.147 47.6471 133.136 49.9929 129.807 50.5703C124.469 51.496 113.418 51.2403 105.947 51.168V5.40332L106.069 0.271484ZM103.595 51.1543C103.461 51.154 103.329 51.1523 103.199 51.1523L103.202 51.1572C100.365 51.1572 86.2004 51.1937 69.7833 51.2373C69.8331 51.1912 69.883 51.1423 69.9298 51.0879C70.2358 50.7315 70.3887 50.2223 70.3888 49.5605L70.2901 45.7402V20.7207L103.595 51.1543ZM134.006 8.0166C138.676 8.01662 142.485 9.61743 145.432 12.8184C148.422 16.0435 149.916 20.2511 149.916 25.4404C149.916 30.7509 148.323 35.0428 145.137 38.3164C142.147 41.3476 138.447 42.8633 134.038 42.8633H133.58C133.406 42.8633 133.231 42.8514 133.057 42.8271V8.05371C133.209 8.02948 133.362 8.01661 133.515 8.0166H134.006ZM150.694 15.999C154.565 17.455 158.365 17.2832 160.252 17.2832H186.628C186.947 17.283 187.179 16.8754 187.325 16.6729C187.472 16.4704 187.703 16.3242 187.964 16.3242H190.056C190.521 16.3242 190.756 16.7898 190.899 16.8193C191.043 16.8487 191.187 16.4415 191.509 16.4414C191.831 16.4414 195.11 16.3829 195.402 16.3828C195.692 16.3828 195.722 16.7898 196.041 16.6729C196.36 16.5555 196.186 16.4683 196.564 16.2363C196.585 16.2328 197.963 16.0066 198.655 16.2949C199.35 16.586 199.757 18.7956 199.874 21.3574C199.909 22.1518 200.081 24.6656 200.044 25.7217C200.081 26.7775 199.909 29.2924 199.874 30.0869C199.76 32.646 199.353 34.8584 198.655 35.1494C197.964 35.4377 196.586 35.2116 196.564 35.208C196.188 34.9734 196.36 34.8888 196.041 34.7715C195.722 34.6545 195.692 35.0615 195.402 35.0615C195.11 35.0615 191.828 35.0029 191.509 35.0029C191.19 35.0028 191.046 34.5948 190.899 34.624C190.753 34.6507 190.522 35.1182 190.056 35.1182H187.964C187.703 35.1182 187.472 34.9711 187.325 34.7686C187.179 34.566 186.947 34.1584 186.628 34.1582H160.249C158.286 34.1582 154.253 33.9714 150.223 35.626C151.785 32.6225 152.568 29.1914 152.568 25.3311C152.568 21.8507 151.942 18.7405 150.694 15.999ZM73.6993 0.21875C88.3716 0.257444 100.534 0.287935 103.183 0.288086C103.204 0.5548 103.229 0.846471 103.258 1.16309C103.345 1.90153 103.389 3.13671 103.389 4.86816V27.6348L73.6993 0.21875ZM35.6925 0.120117C35.5812 0.426717 35.4735 0.788253 35.3702 1.20508C35.126 2.19038 34.604 3.79186 33.8048 6.00879L26.378 26.626L16.2022 0.0703125C20.6827 0.081054 27.6288 0.0985458 35.6925 0.120117Z" fill="black"/>
</svg>
