<svg width="202" height="192" viewBox="0 0 202 192" fill="none" xmlns="http://www.w3.org/2000/svg">
<path d="M50.0575 93.0072C50.0575 86.0928 50.5059 73.2705 49.4989 67.4723C48.4918 61.6742 41.8909 56.8798 37.6398 51.9731C33.3887 47.0664 33.7244 40.8212 33.7244 38.2568L33.7244 12.9416C33.7244 12.635 34.1164 12.4128 34.3112 12.2723C34.5059 12.1319 34.6469 11.9096 34.6469 11.6593V9.65168C34.6469 9.20468 34.1984 8.98246 34.1728 8.84198C34.1446 8.70149 34.5367 8.56356 34.5367 8.25705C34.5367 7.95054 34.593 4.79859 34.593 4.52018C34.593 4.24177 34.201 4.21367 34.3137 3.90716C34.4265 3.60065 34.5085 3.76668 34.734 3.40653C34.734 3.40653 34.9569 2.0681 34.6776 1.39888C34.3983 0.729669 32.2715 0.338868 29.8115 0.229035C29.0479 0.19583 26.6315 0.0298032 25.6168 0.0655627C24.602 0.0298032 22.1856 0.19583 21.422 0.229035C18.9595 0.341422 16.8352 0.732223 16.5559 1.39888C16.2766 2.0681 16.4995 3.40653 16.4995 3.40653C16.7225 3.76923 16.807 3.60065 16.9198 3.90716C17.0325 4.21367 16.6405 4.24177 16.6405 4.52018C16.6405 4.79859 16.6969 7.94799 16.6969 8.25705C16.6969 8.56612 17.0889 8.70405 17.0607 8.84198C17.0325 8.97991 16.5841 9.20468 16.5841 9.65168V11.6593C16.5841 11.9096 16.725 12.1319 16.9198 12.2723C17.1145 12.4128 17.5066 12.635 17.5066 12.9416L17.5066 38.2542C17.5066 40.8187 17.8423 47.0638 13.5912 51.9705C9.34004 56.8773 2.73916 61.6716 1.73211 67.4698C0.725065 73.2679 1.1735 86.0928 1.1735 93.0046C1.1735 99.9164 0.950562 176.973 0.950562 181.433C0.950562 185.893 2.07035 189.461 6.88008 190.243C12.0204 191.078 17.2247 191.665 22.4265 191.923C28.3791 192.22 34.3599 191.614 40.2586 190.84C41.627 190.661 42.9928 190.462 44.356 190.243C49.1657 189.461 50.2855 185.893 50.2855 181.433C50.2855 176.973 50.0626 99.919 50.0626 93.0046L50.0575 93.0072Z" fill="#181C2E"/>
<path d="M142.425 150.888C142.425 146.723 143.171 142.94 144.663 139.538C146.191 136.102 148.273 133.117 150.911 130.583C156.603 125.168 163.753 122.461 172.361 122.461C181.143 122.461 188.293 125.273 193.812 130.896C199.087 136.206 201.725 142.922 201.725 151.044C201.725 159.201 199.018 166.021 193.603 171.505C188.015 177.163 180.865 179.992 172.153 179.992C163.649 179.992 156.603 177.302 151.015 171.922C145.288 166.368 142.425 159.357 142.425 150.888ZM170.695 176.087C170.973 176.122 171.251 176.139 171.528 176.139H172.257C179.268 176.139 185.152 173.97 189.907 169.631C194.974 164.945 197.508 158.802 197.508 151.2C197.508 143.773 195.131 137.751 190.375 133.134C185.69 128.553 179.633 126.262 172.205 126.262H171.424C171.181 126.262 170.938 126.279 170.695 126.314V176.087Z" fill="#181C2E"/>
<path d="M72.1386 171.557L72.2948 176.764C72.2948 177.666 72.0518 178.36 71.5659 178.846C71.08 179.332 70.4899 179.575 69.7958 179.575C69.1363 179.575 68.5809 179.349 68.1297 178.898C67.6785 178.447 67.4529 177.961 67.4529 177.44C67.4529 176.885 67.4876 176.382 67.557 175.931C67.6611 175.445 67.7479 174.907 67.8173 174.317C67.9909 173.31 68.0776 170.794 68.0776 166.767V102L124.671 146.879V115.849C124.671 113.489 124.602 111.805 124.463 110.799C124.289 109.167 124.202 108.022 124.202 107.363C124.202 105.627 124.949 104.759 126.441 104.759C127.031 104.759 127.587 104.968 128.107 105.384C128.663 105.801 128.94 106.408 128.94 107.206V109.029L128.732 116.578V181.866L72.1386 137.455V171.557Z" fill="#181C2E"/>
<path d="M169.402 22.8166C165.827 22.8166 163.033 22.0183 161.02 20.4217C159.007 18.825 158 16.7251 158 14.122C158 11.9353 159.111 10.061 161.332 8.49906C163.692 6.83302 166.191 6 168.829 6C171.467 6 173.498 6.26032 174.921 6.78096C176.379 7.30159 177.611 7.97842 178.617 8.81144C180.63 10.5122 181.637 12.4906 181.637 14.7467C181.637 17.0028 180.492 18.9118 178.201 20.4737C175.91 22.0356 172.977 22.8166 169.402 22.8166ZM158.469 31.9278H180.856V87.5319H158.469V31.9278Z" fill="#181C2E"/>
<path d="M139.512 13C141.171 13 142 13.7452 142 15.2357C142 15.9982 141.717 16.8821 141.15 17.8872C140.625 18.8578 140.2 19.655 139.876 20.2789L106.927 90L67 13.5719H100.131L119.427 52.4618L132.959 23.4504C134.415 20.3309 135.366 18.0779 135.811 16.6914C136.256 15.305 136.741 14.3518 137.267 13.8319C137.793 13.2773 138.541 13 139.512 13Z" fill="#181C2E"/>
</svg>
