<?xml version="1.0" encoding="UTF-8"?>
<svg id="Layer_1" xmlns="http://www.w3.org/2000/svg" viewBox="0 0 50.09 47.02">
  <defs>
    <style>
      .cls-1 {
        fill: none;
      }

      .cls-2 {
        fill: #151616;
      }
    </style>
  </defs>
  <path class="cls-2" d="M12.33,38.11c-2.21-1.12-4.18-2.64-5.83-4.53-.11-.13-.29-.17-.45-.11-.16.06-.27.21-.27.38v7.77c0,.82.66,1.49,1.47,1.49h2.89c.49,0,1.13-.24,1.46-1.37l.94-3.14c.06-.19-.03-.39-.21-.48ZM10.81,41.5c-.22.78-.56.78-.67.78h-2.89c-.36,0-.65-.3-.65-.67v-6.72c1.48,1.53,3.18,2.8,5.05,3.79l-.84,2.81Z"/>
  <path class="cls-2" d="M21.01,36.44c-1.4,0-2.54-1.15-2.54-2.56s1.14-2.56,2.54-2.56,2.54,1.15,2.54,2.56-1.14,2.56-2.54,2.56ZM21.01,32.14c-.95,0-1.72.78-1.72,1.74s.77,1.74,1.72,1.74,1.72-.78,1.72-1.74-.77-1.74-1.72-1.74Z"/>
  <path class="cls-2" d="M21.01,35.22c-.73,0-1.33-.6-1.33-1.34s.6-1.34,1.33-1.34,1.33.6,1.33,1.34-.6,1.34-1.33,1.34ZM21.01,33.36c-.28,0-.51.24-.51.52s.23.52.51.52.51-.24.51-.52-.23-.52-.51-.52Z"/>
  <path class="cls-2" d="M18.97,34.93h-7.81c-.23,0-.41-.18-.41-.41s.18-.41.41-.41h7.81c.23,0,.41.18.41.41s-.18.41-.41.41Z"/>
  <path class="cls-2" d="M37.83,19.04H4.19c-.23,0-.41-.18-.41-.41s.18-.41.41-.41h33.64c.23,0,.41.18.41.41s-.18.41-.41.41Z"/>
  <path class="cls-2" d="M36.87,15.06H5.12c-.23,0-.41-.18-.41-.41s.18-.41.41-.41h31.75c.23,0,.41.18.41.41s-.18.41-.41.41Z"/>
  <path class="cls-2" d="M34.79,11.09H7.22c-.23,0-.41-.18-.41-.41s.18-.41.41-.41h27.58c.23,0,.41.18.41.41s-.18.41-.41.41Z"/>
  <path class="cls-2" d="M30.86,7.11H11.15c-.23,0-.41-.18-.41-.41s.18-.41.41-.41h19.71c.23,0,.41.18.41.41s-.18.41-.41.41Z"/>
  <path class="cls-2" d="M37.84,23.91c-6.47,0-11.72,5.25-11.72,11.72s5.25,11.72,11.72,11.72,11.72-5.25,11.72-11.72-5.25-11.72-11.72-11.72ZM45.11,36.54c-.23.22-.52.33-.87.33h-5.08v5.18c0,.4-.12.72-.37.97s-.57.37-.97.37c-.37,0-.69-.12-.95-.37-.26-.25-.39-.56-.39-.94v-5.21h-5.02c-.35,0-.64-.11-.87-.34-.23-.23-.34-.51-.34-.84s.11-.61.34-.83c.23-.22.52-.33.87-.33h5.02v-5.33c0-.4.13-.72.39-.97.26-.25.59-.37.98-.37s.71.12.95.37c.24.25.36.57.36.97v5.33h5.08c.35,0,.64.11.87.34.23.23.34.51.34.84s-.11.61-.34.83Z"/>
  <path class="cls-1" d="M33.34,23.01H4.68c.16,1.09.41,2.14.77,3.15h22.98c1.37-1.39,3.04-2.47,4.91-3.15Z"/>
  <path class="cls-1" d="M37.52,20.61c0-9.2-7.41-16.69-16.52-16.69S4.49,11.41,4.49,20.61c0,.53.03,1.06.08,1.58h32.88c.05-.52.08-1.04.08-1.58Z"/>
  <path class="cls-1" d="M27.68,26.98H5.74c.46,1.12,1.04,2.17,1.72,3.15h18.28c.5-1.14,1.16-2.21,1.95-3.15Z"/>
  <path class="cls-1" d="M24.64,34.93h-1.61c-.23,0-.41-.18-.41-.41s.18-.41.41-.41h1.65c.11-1.1.37-2.15.74-3.15H8.07c3.03,3.86,7.7,6.34,12.94,6.34,1.27,0,2.49-.15,3.68-.43-.05-.46-.07-.92-.07-1.39,0-.19.02-.37.03-.55Z"/>
  <path class="cls-1" d="M21.01,1.06C10.33,1.06,1.64,9.83,1.64,20.61s8.69,19.57,19.37,19.57c1.48,0,2.91-.18,4.29-.5-.21-.64-.37-1.31-.49-1.99-1.22.28-2.49.44-3.8.44-5.76,0-10.86-2.86-14.01-7.24-.08-.05-.13-.13-.16-.22-.82-1.17-1.49-2.45-2.01-3.82-.07-.07-.11-.17-.11-.27,0,0,0-.01,0-.02-.43-1.21-.74-2.47-.91-3.79-.02-.05-.04-.11-.04-.17,0-.01,0-.02,0-.03-.07-.64-.11-1.29-.11-1.95C3.67,10.96,11.45,3.1,21.01,3.1s17.34,7.85,17.34,17.51c0,.54-.03,1.07-.08,1.59.68.02,1.35.09,2.01.2.05-.59.09-1.19.09-1.8C40.36,9.83,31.68,1.06,21.01,1.06Z"/>
  <path class="cls-2" d="M21.01,40.18C10.33,40.18,1.64,31.4,1.64,20.61S10.33,1.06,21.01,1.06s19.35,8.77,19.35,19.55c0,.61-.04,1.21-.09,1.8.27.05.54.11.81.18.06-.65.1-1.31.1-1.97C41.18,9.38,32.13.24,21.01.24S.82,9.38.82,20.61s9.06,20.39,20.19,20.39c1.57,0,3.1-.2,4.57-.55-.1-.25-.2-.51-.28-.77-1.38.32-2.81.5-4.29.5Z"/>
  <path class="cls-2" d="M4.19,22.19h.38c-.05-.52-.08-1.04-.08-1.58C4.49,11.41,11.9,3.92,21.01,3.92s16.52,7.49,16.52,16.69c0,.53-.03,1.06-.08,1.58h.38s.01,0,.02,0c.02,0,.04,0,.06,0,.12,0,.24.01.36.02.05-.53.08-1.06.08-1.59,0-9.65-7.78-17.51-17.34-17.51S3.67,10.96,3.67,20.61c0,.66.04,1.31.11,1.95.02-.21.19-.38.4-.38Z"/>
  <path class="cls-2" d="M5.12,26.16h.32c-.35-1.01-.61-2.06-.77-3.15h-.49c-.17,0-.31-.1-.37-.24.16,1.32.47,2.58.91,3.79,0-.22.19-.39.41-.39Z"/>
  <path class="cls-2" d="M7.22,30.14h.24c-.68-.98-1.26-2.03-1.72-3.15h-.62c-.12,0-.23-.05-.3-.14.52,1.36,1.19,2.64,2.01,3.82-.01-.04-.02-.08-.02-.12,0-.23.18-.41.41-.41Z"/>
  <path class="cls-2" d="M21.01,37.3c-5.24,0-9.91-2.49-12.94-6.34h-.85c-.09,0-.16-.03-.23-.08,3.15,4.38,8.25,7.24,14.01,7.24,1.31,0,2.58-.16,3.8-.44-.05-.27-.1-.54-.12-.82-1.18.28-2.41.43-3.68.43Z"/>
  <path class="cls-2" d="M22.62,34.52c0,.23.18.41.41.41h1.61c.01-.27.02-.55.04-.82h-1.65c-.23,0-.41.18-.41.41Z"/>
  <path class="cls-2" d="M25.74,30.14H7.46c.19.28.4.55.61.82h17.35c.1-.28.2-.55.32-.82Z"/>
  <path class="cls-2" d="M8.07,30.96c-.21-.27-.41-.54-.61-.82h-.24c-.23,0-.41.18-.41.41,0,.04.01.08.02.12.03.09.08.16.16.22.07.04.14.08.23.08h.85Z"/>
  <path class="cls-2" d="M4.71,26.57c0,.11.04.2.11.27-.04-.1-.07-.19-.11-.29,0,0,0,.01,0,.02Z"/>
  <path class="cls-2" d="M28.43,26.16H5.45c.1.27.19.55.3.82h21.94c.24-.28.49-.56.75-.82Z"/>
  <path class="cls-2" d="M5.74,26.98c-.11-.27-.2-.55-.3-.82h-.32c-.22,0-.4.17-.41.39.04.1.07.2.11.29.08.08.18.14.3.14h.62Z"/>
  <path class="cls-2" d="M37.44,22.21s0-.02,0-.02H4.57c.03.28.07.55.11.82h28.67c1.29-.47,2.66-.75,4.1-.8Z"/>
  <path class="cls-2" d="M3.78,22.6c0,.06.01.12.04.17,0-.07-.02-.13-.03-.2,0,.01,0,.02,0,.03Z"/>
  <path class="cls-2" d="M4.19,23.01h.49c-.04-.27-.09-.54-.11-.82h-.38c-.22,0-.39.17-.4.38,0,.07.02.13.03.2.06.14.21.24.37.24Z"/>
  <path class="cls-2" d="M37.84,22.19s-.01,0-.02,0h-.38s0,.02,0,.02c.13,0,.27-.02.4-.02Z"/>
</svg>