<?xml version="1.0" encoding="UTF-8"?>
<svg id="Layer_1" xmlns="http://www.w3.org/2000/svg" viewBox="0 0 44.86 46.93">
  <defs>
    <style>
      .cls-1 {
        fill: none;
      }

      .cls-2 {
        fill: #151616;
      }
    </style>
  </defs>
  <path class="cls-2" d="M.46,37.65h.46v-12.92h-.46c-.25,0-.46.2-.46.46v12c0,.25.2.46.46.46Z"/>
  <path class="cls-2" d="M1.36,18.42h0s0,0,0,0Z"/>
  <g>
    <polygon class="cls-1" points="32.16 13.49 29.62 13.49 27.63 18.14 34.15 18.14 32.16 13.49"/>
    <path class="cls-1" d="M6.3,36.2v-10.01c0-.3-.24-.54-.53-.54H.92v11.09h4.86c.29,0,.53-.24.53-.54Z"/>
    <path class="cls-1" d="M35.52,21.84c-.11-.54-.26-1.09-.5-1.65l-.48-1.13h-7.3l-.48,1.13c-.48,1.12-.64,2.17-.69,3.31,2-1.21,4.34-1.91,6.85-1.91.89,0,1.76.09,2.6.26Z"/>
    <path class="cls-1" d="M18.36,37.65h-4.88v3.83c0,.26.22.48.49.48h7.71c-1.01-1.59-1.68-3.41-1.94-5.37-.17.61-.72,1.06-1.38,1.06Z"/>
    <path class="cls-1" d="M18.89,36.2v-10.01c0-.3-.24-.54-.53-.54h-4.88v11.09h4.88c.29,0,.53-.24.53-.54Z"/>
    <path class="cls-1" d="M32,4.08c0-.21.14-.39.34-.44v-1.52c-.2-.05-.34-.23-.34-.44v-.55c0-.11-.1-.21-.21-.21h-1.81c-.11,0-.21.1-.21.21v.55c0,.21-.14.39-.34.44v1.51c.2.05.34.23.34.44v8.49h2.23V4.08Z"/>
    <path class="cls-1" d="M20.74,16.17l-1.15-2.68h-2.54c-.67,1.55-1.33,3.1-1.99,4.66h6.52c-.28-.66-.56-1.32-.84-1.98Z"/>
    <path class="cls-1" d="M19.43,4.08c0-.21.14-.39.34-.44v-1.52c-.2-.05-.34-.23-.34-.44v-.55c0-.11-.1-.21-.21-.21h-1.83c-.08,0-.19.09-.19.21v.55c0,.21-.15.39-.34.44v1.51c.2.05.34.23.34.44v8.49h2.23V4.08Z"/>
    <path class="cls-1" d="M1.6,20.19c-.57,1.32-.69,2.58-.69,4.05v.5h4.86c.8,0,1.44.65,1.44,1.45v10.01c0,.8-.65,1.45-1.44,1.45H.92v3.83c0,.25.22.48.47.48h8.72c.25,0,.47-.22.47-.48v-17.25c0-1.47-.12-2.72-.69-4.05l-.48-1.13H2.09l-.48,1.13Z"/>
    <path class="cls-1" d="M6.85,4.08c0-.21.14-.39.34-.44v-1.51c-.2-.05-.34-.23-.34-.44v-.55c0-.12-.08-.21-.19-.21h-1.83c-.1,0-.19.09-.19.21v.55c0,.21-.15.39-.34.44v1.51c.2.05.34.23.34.44v8.49h2.21V4.08Z"/>
    <polygon class="cls-1" points="7 13.49 4.48 13.49 2.48 18.14 9.01 18.14 7 13.49"/>
    <path class="cls-1" d="M22.45,20.19c-.16-.38-.32-.75-.48-1.13h-7.3c-.16.38-.32.75-.48,1.12-.59,1.37-.71,2.61-.71,4.05v.5h4.88c.8,0,1.44.65,1.44,1.45v6.56c.42-2.64,1.62-5.01,3.35-6.89v-1.63c0-1.44-.12-2.68-.71-4.05Z"/>
    <path class="cls-2" d="M7.22,36.2v-10.01c0-.8-.65-1.45-1.44-1.45H.92v.92h4.86c.29,0,.53.24.53.54v10.01c0,.3-.24.54-.53.54H.92v.92h4.86c.8,0,1.44-.65,1.44-1.45Z"/>
    <path class="cls-2" d="M19.74,36.59c-.07-.56-.12-1.14-.12-1.72,0-.72.07-1.43.19-2.12v-6.56c0-.8-.65-1.45-1.44-1.45h-4.88v.92h4.88c.29,0,.53.24.53.54v10.01c0,.3-.24.54-.53.54h-4.88v.92h4.88c.66,0,1.21-.45,1.38-1.06Z"/>
    <path class="cls-2" d="M7.76,12.93V4.39c.21-.15.34-.39.34-.66v-1.71c0-.28-.13-.53-.34-.67v-.23c0-.62-.49-1.13-1.1-1.13h-1.83c-.61,0-1.1.51-1.1,1.13v.23c-.21.14-.34.38-.34.67v1.71c0,.27.14.51.34.66v8.54l-2.36,5.49c.07-.16.23-.28.42-.28h.7l2-4.66h-.3c-.25,0-.46-.2-.46-.46s.2-.46.46-.46h.46V4.08c0-.21-.15-.39-.34-.44v-1.51c.2-.05.34-.23.34-.44v-.55c0-.12.08-.21.19-.21h1.83c.1,0,.19.1.19.21v.55c0,.21.14.39.34.44v1.51c-.2.05-.34.23-.34.44v8.49h.46c.25,0,.46.2.46.46s-.2.46-.46.46h-.3l2,4.66h.69c.25,0,.46.2.46.46s-.2.46-.46.46h-.3l.48,1.13c.57,1.33.69,2.58.69,4.05v17.25c0,.25-.22.48-.47.48H1.38c-.25,0-.47-.22-.47-.48v-3.83h-.46c-.25,0-.46-.2-.46-.46v4.29c0,.76.63,1.39,1.38,1.39h8.72c.75,0,1.38-.64,1.38-1.39v-17.25c0-1.59-.13-2.94-.76-4.41l-2.96-6.89Z"/>
    <path class="cls-2" d="M26.76,20.18l.48-1.13h-.3c-.25,0-.46-.2-.46-.46s.2-.46.46-.46h.69l1.99-4.66h-.3c-.25,0-.46-.2-.46-.46s.2-.46.46-.46h.46V4.08c0-.21-.14-.39-.34-.44v-1.51c.2-.05.34-.23.34-.44v-.55c0-.11.1-.21.21-.21h1.81c.11,0,.21.1.21.21v.55c0,.21.14.39.34.44v1.52c-.2.05-.34.23-.34.44v8.49h.46c.25,0,.46.2.46.46s-.2.46-.46.46h-.3l1.99,4.66h.69c.25,0,.46.2.46.46s-.2.46-.46.46h-.3l.48,1.13c.24.56.39,1.11.5,1.65.33.07.66.15.98.24-.11-.72-.3-1.47-.64-2.26l-2.94-6.89V4.39c.2-.15.34-.39.34-.66v-1.71c0-.27-.14-.51-.34-.66v-.24c0-.62-.5-1.13-1.12-1.13h-1.81c-.62,0-1.12.51-1.12,1.13v.24c-.21.14-.34.39-.34.66v1.71c0,.27.14.51.34.66v8.55l-2.94,6.89c-.67,1.55-.77,2.97-.78,4.28.3-.22.61-.42.93-.61.04-1.14.2-2.18.69-3.31Z"/>
    <path class="cls-2" d="M.46,24.73h.46v-.5c0-1.47.12-2.73.69-4.05l.48-1.13h-.3c-.25,0-.46-.2-.46-.46,0-.06.01-.12.04-.18l-.6,1.4c-.63,1.47-.76,2.83-.76,4.41v.96c0-.25.2-.46.46-.46Z"/>
    <path class="cls-2" d="M13.02,24.73h.46v-.5c0-1.44.12-2.69.71-4.05.16-.38.32-.75.48-1.12h-.32c-.25,0-.46-.2-.46-.46,0-.04.01-.07.02-.1-.19.44-.38.88-.57,1.33-.69,1.6-.78,3.06-.78,4.41v.96c0-.25.2-.46.46-.46Z"/>
    <path class="cls-2" d="M13.97,41.96c-.26,0-.49-.22-.49-.48v-3.83h-.46c-.25,0-.46-.2-.46-.46v4.29c0,.77.63,1.39,1.4,1.39h8.35c-.22-.3-.44-.6-.64-.92h-7.71Z"/>
    <path class="cls-2" d="M14.35,18.14h.71c.66-1.55,1.32-3.11,1.99-4.66h-.3c-.25,0-.46-.2-.46-.46s.2-.46.46-.46h.46V4.08c0-.21-.15-.39-.34-.44v-1.51c.2-.05.34-.23.34-.44v-.55c0-.12.1-.21.19-.21h1.83c.11,0,.21.1.21.21v.55c0,.21.14.39.34.44v1.52c-.2.05-.34.23-.34.44v8.49h.46c.25,0,.46.2.46.46s-.2.46-.46.46h-.3l1.15,2.68c.28.66.56,1.32.84,1.98h.69c.25,0,.46.2.46.46s-.2.46-.46.46h-.3c.16.38.32.75.48,1.13.59,1.37.71,2.61.71,4.05v1.63c.29-.31.6-.61.92-.9v-.73c0-1.35-.09-2.81-.78-4.41-.57-1.35-1.14-2.69-1.72-4.02l-1.23-2.87V4.39c.2-.15.34-.39.34-.66v-1.71c0-.27-.14-.51-.34-.66v-.24c0-.62-.5-1.13-1.12-1.13h-1.83c-.6,0-1.1.52-1.1,1.13v.24c-.21.14-.34.39-.34.66v1.71c0,.27.14.51.34.66v8.55c-.78,1.8-1.55,3.61-2.32,5.42.08-.13.22-.21.38-.21Z"/>
    <path class="cls-2" d="M13.02,37.65h.46v-12.92h-.46c-.25,0-.46.2-.46.46v12c0,.25.2.46.46.46Z"/>
    <polygon class="cls-2" points="34.15 18.14 27.63 18.14 27.24 19.06 34.54 19.06 34.15 18.14"/>
    <path class="cls-2" d="M13.92,18.5s.04-.09.06-.14c-.03.04-.05.09-.06.14Z"/>
    <polygon class="cls-2" points="9.4 19.06 9.01 18.14 2.48 18.14 2.09 19.06 9.4 19.06"/>
    <path class="cls-2" d="M21.58,18.14h-6.52c-.13.31-.26.61-.39.92h7.3c-.13-.31-.26-.61-.39-.92Z"/>
    <path class="cls-2" d="M22.27,19.06c.25,0,.46-.2.46-.46s-.2-.46-.46-.46h-.69c.13.3.26.61.39.92h.3Z"/>
    <path class="cls-2" d="M1.79,19.06h.3l.39-.92h-.7c-.19,0-.35.12-.42.28h0c-.02.06-.04.12-.04.18,0,.25.2.46.46.46Z"/>
    <path class="cls-2" d="M9.7,19.06c.25,0,.46-.2.46-.46s-.2-.46-.46-.46h-.69l.39.92h.3Z"/>
    <path class="cls-2" d="M14.35,19.06h.32c.13-.31.26-.61.39-.92h-.71c-.16,0-.29.09-.38.21-.02.05-.04.09-.06.14,0,.03-.02.07-.02.1,0,.25.2.46.46.46Z"/>
    <path class="cls-2" d="M26.94,18.14c-.25,0-.46.2-.46.46s.2.46.46.46h.3l.39-.92h-.69Z"/>
    <path class="cls-2" d="M34.83,19.06c.25,0,.46-.2.46-.46s-.2-.46-.46-.46h-.69l.39.92h.3Z"/>
    <path class="cls-2" d="M19.47,13.21c-.03-.06-.04-.12-.04-.18v-.46h-2.23v.46c0,.06-.01.12-.04.18-.04.09-.08.18-.12.28h2.54l-.12-.28Z"/>
    <path class="cls-2" d="M6.88,13.21c-.02-.06-.04-.12-.04-.18v-.46h-2.21v.46c0,.06-.01.12-.04.18l-.12.28h2.52l-.12-.28Z"/>
    <path class="cls-2" d="M32.04,13.21c-.02-.06-.04-.12-.04-.18v-.46h-2.23v.46c0,.06-.01.12-.04.18l-.12.28h2.54l-.12-.28Z"/>
    <path class="cls-2" d="M32.04,13.21l.12.28h.3c.25,0,.46-.2.46-.46s-.2-.46-.46-.46h-.46v.46c0,.06.01.12.04.18Z"/>
    <path class="cls-2" d="M4.64,13.03v-.46h-.46c-.25,0-.46.2-.46.46s.2.46.46.46h.3l.12-.28c.02-.06.04-.12.04-.18Z"/>
    <path class="cls-2" d="M6.88,13.21l.12.28h.3c.25,0,.46-.2.46-.46s-.2-.46-.46-.46h-.46v.46c0,.06.01.12.04.18Z"/>
    <path class="cls-2" d="M29.77,13.03v-.46h-.46c-.25,0-.46.2-.46.46s.2.46.46.46h.3l.12-.28c.02-.06.04-.12.04-.18Z"/>
    <path class="cls-2" d="M17.21,13.03v-.46h-.46c-.25,0-.46.2-.46.46s.2.46.46.46h.3c.04-.09.08-.18.12-.28.03-.06.04-.12.04-.18Z"/>
    <path class="cls-2" d="M19.47,13.21l.12.28h.3c.25,0,.46-.2.46-.46s-.2-.46-.46-.46h-.46v.46c0,.06.01.12.04.18Z"/>
    <path class="cls-2" d="M19.74,36.59c.04-.13.06-.26.06-.4v-3.45c-.11.69-.19,1.4-.19,2.12,0,.58.05,1.16.12,1.72Z"/>
    <path class="cls-2" d="M33.15,23.49c-6.47,0-11.72,5.25-11.72,11.72s5.25,11.72,11.72,11.72,11.72-5.25,11.72-11.72-5.25-11.72-11.72-11.72ZM40.41,36.13c-.23.22-.52.33-.87.33h-5.08v5.18c0,.4-.12.72-.37.97s-.57.37-.97.37c-.37,0-.69-.12-.95-.37-.26-.25-.39-.56-.39-.94v-5.21h-5.02c-.35,0-.64-.11-.87-.34-.23-.23-.34-.51-.34-.84s.11-.61.34-.83c.23-.22.52-.33.87-.33h5.02v-5.33c0-.4.13-.72.39-.97.26-.25.59-.37.98-.37s.71.12.95.37c.24.25.36.57.36.97v5.33h5.08c.35,0,.64.11.87.34.23.23.34.51.34.84s-.11.61-.34.83Z"/>
  </g>
</svg>