<svg width="121" height="72" viewBox="0 0 121 72" fill="none" xmlns="http://www.w3.org/2000/svg">
<g clip-path="url(#clip0_305_5642)">
<path d="M75.6571 49.4893H45.343C44.6884 49.4893 44.176 48.9771 44.176 48.3225C44.176 47.668 44.6884 47.1557 45.343 47.1557H75.6571C76.3118 47.1557 76.8241 47.668 76.8241 48.3225C76.8241 48.9771 76.3118 49.4893 75.6571 49.4893Z" fill="#151616"/>
<path d="M80.9512 43.3138H40.0486C39.3939 43.3138 38.8816 42.8016 38.8816 42.147C38.8816 41.4925 39.3939 40.9802 40.0486 40.9802H80.9512C81.6059 40.9802 82.1182 41.4925 82.1182 42.147C82.1182 42.8016 81.6059 43.3138 80.9512 43.3138Z" fill="#151616"/>
<path d="M83.5699 37.1383H37.4868C36.8322 37.1383 36.3198 36.6261 36.3198 35.9715C36.3198 35.317 36.8322 34.8047 37.4868 34.8047H83.5699C84.2246 34.8047 84.7369 35.317 84.7369 35.9715C84.7369 36.6261 84.2246 37.1383 83.5699 37.1383Z" fill="#151616"/>
<path d="M84.3386 30.9629H36.7185C36.0639 30.9629 35.5515 30.4506 35.5515 29.7961C35.5515 29.1415 36.0639 28.6293 36.7185 28.6293H84.3386C84.9933 28.6293 85.5056 29.1415 85.5056 29.7961C85.5056 30.4506 84.9933 30.9629 84.3386 30.9629Z" fill="#151616"/>
<path d="M83.5699 24.7304H37.4868C36.8322 24.7304 36.3198 24.2182 36.3198 23.5636C36.3198 22.9091 36.8322 22.3968 37.4868 22.3968H83.5699C84.2246 22.3968 84.7369 22.9091 84.7369 23.5636C84.7369 24.2182 84.2246 24.7304 83.5699 24.7304Z" fill="#151616"/>
<path d="M75.6571 12.4079H45.343C44.6884 12.4079 44.176 11.8957 44.176 11.2411C44.176 10.5866 44.6884 10.0743 45.343 10.0743H75.6571C76.3118 10.0743 76.8241 10.5866 76.8241 11.2411C76.8241 11.8957 76.3118 12.4079 75.6571 12.4079Z" fill="#151616"/>
<path d="M80.9512 18.5834H40.0486C39.3939 18.5834 38.8816 18.0711 38.8816 17.4166C38.8816 16.7621 39.3939 16.2498 40.0486 16.2498H80.9512C81.6059 16.2498 82.1182 16.7621 82.1182 17.4166C82.1182 18.0711 81.6059 18.5834 80.9512 18.5834Z" fill="#151616"/>
<path d="M60.4858 54.9818C46.7377 54.9818 35.5229 43.6838 35.5229 29.796C35.5229 15.9083 46.7377 4.55336 60.4858 4.55336C74.2338 4.55336 85.4771 15.8798 85.4771 29.796C85.4771 43.7123 74.2623 54.9818 60.4858 54.9818ZM60.4858 6.88696C48.0186 6.88696 37.857 17.1605 37.857 29.796C37.857 42.4316 47.9901 52.6482 60.4858 52.6482C72.9814 52.6482 83.143 42.4032 83.143 29.796C83.143 17.1889 72.9814 6.88696 60.4858 6.88696Z" fill="#151616"/>
<path d="M60.4858 59.5636C44.2329 59.5636 31.0256 46.2166 31.0256 29.8245C31.0256 13.4324 44.2329 0 60.4858 0C76.7386 0 90.0028 13.3755 90.0028 29.7961C90.0028 46.2166 76.7671 59.5352 60.4858 59.5352V59.5636ZM60.4858 2.3336C45.5138 2.3336 33.3597 14.6561 33.3597 29.7961C33.3597 44.936 45.5422 57.2016 60.4858 57.2016C75.4293 57.2016 87.6688 44.9075 87.6688 29.7961C87.6688 14.6846 75.4862 2.3336 60.4858 2.3336Z" fill="#151616"/>
<path d="M82.3461 72H78.7596C77.1087 72 75.7424 70.634 75.7424 68.9549V56.234C75.7424 55.5795 76.2548 55.0672 76.9095 55.0672C77.5641 55.0672 78.0765 55.5795 78.0765 56.234V68.9549C78.0765 69.3534 78.3896 69.6664 78.7596 69.6664H82.3461C82.7445 69.6664 83.0861 69.3534 83.0861 68.9549V48.5787C83.0861 47.9241 83.5985 47.4119 84.2531 47.4119C84.9078 47.4119 85.4202 47.9241 85.4202 48.5787V68.9549C85.4202 70.634 84.0539 72 82.3461 72Z" fill="#151616"/>
<path d="M42.2688 72H38.7108C37.003 72 35.6367 70.6625 35.6367 68.9549V48.5787C35.6367 47.9241 36.1491 47.4119 36.8037 47.4119C37.4584 47.4119 37.9708 47.9241 37.9708 48.5787V68.9549C37.9708 69.3534 38.2839 69.6664 38.7108 69.6664H42.2688C42.6958 69.6664 43.0089 69.3818 43.0089 68.9549V56.234C43.0089 55.5795 43.5212 55.0672 44.1759 55.0672C44.8306 55.0672 45.3429 55.5795 45.3429 56.234V68.9549C45.3429 70.6625 44.0051 72 42.2688 72Z" fill="#151616"/>
<path d="M76.881 65.9952H44.1475C43.4928 65.9952 42.9805 65.483 42.9805 64.8284V56.2624C42.9805 55.6079 43.4928 55.0956 44.1475 55.0956C44.8022 55.0956 45.3145 55.6079 45.3145 56.2624V63.6617H75.7139V56.2624C75.7139 55.6079 76.2263 55.0956 76.881 55.0956C77.5356 55.0956 78.048 55.6079 78.048 56.2624V64.8284C78.048 65.483 77.5356 65.9952 76.881 65.9952Z" fill="#151616"/>
<path d="M114.339 72H111.322C109.785 72 108.561 70.7478 108.561 69.2111V58.5391C108.561 58.3115 108.618 58.1123 108.732 57.9415C105.003 60.1897 100.62 61.4704 95.9517 61.4704C95.297 61.4704 94.7847 60.9581 94.7847 60.3036C94.7847 59.649 95.297 59.1368 95.9517 59.1368C108.476 59.1368 118.666 48.8348 118.666 36.1707C118.666 23.5067 108.476 13.1763 95.9517 13.1763C93.0484 13.1763 90.202 13.717 87.441 14.7984C86.8432 15.0261 86.1601 14.7415 85.9324 14.1439C85.7047 13.5462 85.9893 12.8632 86.5871 12.6356C89.6042 11.4403 92.7637 10.8427 95.9517 10.8427C109.757 10.8427 121 22.1976 121 36.1707C121 41.6632 119.264 46.7288 116.303 50.8838C116.759 51.0545 117.1 51.4814 117.1 51.9937V69.2111C117.1 70.7478 115.876 72 114.339 72ZM110.895 65.7676V69.2395C110.895 69.4672 111.094 69.6949 111.322 69.6949H114.339C114.567 69.6949 114.766 69.4957 114.766 69.2395V52.8759C113.258 54.6119 111.521 56.1202 109.614 57.4008C110.297 57.3439 110.895 57.8846 110.895 58.5676V65.7676ZM9.7061 72H6.68892C5.15187 72 3.92793 70.7478 3.92793 69.2111V51.9937C3.92793 51.4814 4.26949 51.0545 4.72492 50.8838C1.76467 46.7288 0.0283741 41.6632 0.0283741 36.1707C-8.97888e-05 22.1976 11.2716 10.8427 25.1051 10.8427C28.2646 10.8427 31.481 11.4688 34.4128 12.6356C35.0105 12.8632 35.2951 13.5462 35.0674 14.1439C34.8397 14.7415 34.1566 15.0261 33.5588 14.7984C30.8832 13.7454 27.9799 13.1763 25.1051 13.1763C12.5525 13.1763 2.33395 23.5067 2.33395 36.1707C2.33395 48.8348 12.5525 59.1368 25.1051 59.1368C28.3499 59.1368 31.3671 58.5107 34.1281 57.2585C34.7259 57.0024 35.409 57.2585 35.6652 57.8561C35.9213 58.4538 35.6652 59.1368 35.0959 59.3929C32.0503 60.7589 28.6915 61.4704 25.1051 61.4704C20.4085 61.4704 16.0251 60.1613 12.2678 57.913C12.3817 58.0838 12.4671 58.3115 12.4671 58.5391V69.2111C12.4671 70.7478 11.2431 72 9.7061 72ZM6.2335 52.8474V69.2111C6.2335 69.4387 6.43275 69.6664 6.66046 69.6664H9.67763C9.90534 69.6664 10.1046 69.4672 10.1046 69.2111V58.5391C10.1046 57.8561 10.7593 57.3154 11.4139 57.3723C9.47839 56.0917 7.74209 54.5834 6.2335 52.8474ZM95.9517 57.6285C95.297 57.6285 94.7847 57.1162 94.7847 56.4617C94.7847 55.8071 95.297 55.2949 95.9517 55.2949C99.1966 55.2949 102.242 54.4696 104.918 53.0182H88.8073C88.1526 53.0182 87.6402 52.5059 87.6402 51.8514C87.6402 51.1968 88.1526 50.6846 88.8073 50.6846H108.277C109.273 49.8024 110.184 48.8348 110.981 47.7818H86.5586C85.9039 47.7818 85.3916 47.2696 85.3916 46.615C85.3916 45.9605 85.9039 45.4482 86.5586 45.4482H112.518C113.03 44.5091 113.457 43.5415 113.827 42.5454H89.2627C88.608 42.5454 88.0957 42.0332 88.0957 41.3787C88.0957 40.7241 88.608 40.2119 89.2627 40.2119H114.482C114.681 39.2727 114.823 38.3336 114.88 37.366H90.7997C90.1451 37.366 89.6327 36.8538 89.6327 36.1992C89.6327 35.5447 90.1451 35.0324 90.7997 35.0324H114.88C114.823 34.0364 114.681 33.0688 114.482 32.1296H91.4259C90.7713 32.1296 90.2589 31.6174 90.2589 30.9628C90.2589 30.3083 90.7713 29.796 91.4259 29.796H113.827C113.485 28.8 113.03 27.8039 112.518 26.8933H91.1982C90.5436 26.8933 90.0312 26.381 90.0312 25.7265C90.0312 25.0719 90.5436 24.5597 91.1982 24.5597H110.981C110.184 23.5067 109.273 22.5107 108.277 21.6569H90.0597C89.405 21.6569 88.8926 21.1447 88.8926 20.4901C88.8926 19.8356 89.405 19.3233 90.0597 19.3233H104.918C100.364 16.8474 94.5285 16.3067 89.1773 18.2704C88.5795 18.498 87.8964 18.185 87.6687 17.5873C87.441 16.9897 87.7541 16.3067 88.3518 16.079C90.8282 15.1684 93.3899 14.713 95.9517 14.713C100.961 14.713 105.572 16.4775 109.216 19.4371C109.415 19.5225 109.586 19.6648 109.7 19.8356C111.379 21.287 112.831 22.966 113.998 24.8727C114.169 25.015 114.282 25.2142 114.339 25.4419C115.25 27.0356 115.962 28.7146 116.446 30.536C116.474 30.6213 116.503 30.7067 116.531 30.8205C116.987 32.5565 117.214 34.3494 117.214 36.2277C117.214 40.1549 116.161 43.8261 114.339 46.985C114.282 47.1842 114.169 47.3549 114.055 47.4688C112.888 49.404 111.408 51.1115 109.7 52.5913C109.586 52.7336 109.444 52.8474 109.273 52.9328C105.629 55.8925 100.99 57.6569 95.9802 57.6569L95.9517 57.6285ZM25.1051 57.6285C20.0385 57.6285 15.3704 55.8356 11.6986 52.8474C11.6132 52.7905 11.5278 52.7336 11.4709 52.6482C8.14058 49.8593 5.69269 46.0458 4.52567 41.7202C4.52567 41.7202 4.52567 41.6632 4.52567 41.6348C4.07025 39.8988 3.84254 38.0775 3.84254 36.1992C3.84254 34.3209 4.07025 32.5281 4.52567 30.8205C4.52567 30.7067 4.55413 30.6213 4.61106 30.5075C5.12341 28.6292 5.86347 26.8648 6.83124 25.2427C6.85971 25.1573 6.91664 25.0719 6.97356 25.015C8.16905 23.0229 9.7061 21.23 11.4709 19.7502C11.5563 19.6364 11.6701 19.551 11.8124 19.4656C15.4843 16.4775 20.1239 14.713 25.162 14.713C27.7522 14.713 30.2855 15.1684 32.7049 16.079C33.3027 16.3067 33.6158 16.9897 33.3881 17.5873C33.1603 18.185 32.4772 18.498 31.8795 18.2704C26.6706 16.3352 20.7501 16.8474 16.1674 19.3233H31.054C31.7087 19.3233 32.221 19.8356 32.221 20.4901C32.221 21.1447 31.7087 21.6569 31.054 21.6569H12.8087C11.8124 22.5391 10.9016 23.5067 10.0761 24.5597H29.9155C30.5701 24.5597 31.0825 25.0719 31.0825 25.7265C31.0825 26.381 30.5701 26.8933 29.9155 26.8933H8.53908C8.02673 27.8039 7.59977 28.8 7.22974 29.796H29.6308C30.2855 29.796 30.7978 30.3083 30.7978 30.9628C30.7978 31.6174 30.2855 32.1296 29.6308 32.1296H6.57507C6.37582 33.0688 6.2335 34.0364 6.17658 35.0324H30.314C30.9686 35.0324 31.481 35.5447 31.481 36.1992C31.481 36.8538 30.9686 37.366 30.314 37.366H6.17658C6.2335 38.3336 6.37582 39.3012 6.57507 40.2119H31.851C32.5057 40.2119 33.018 40.7241 33.018 41.3787C33.018 42.0332 32.5057 42.5454 31.851 42.5454H7.20127C7.54284 43.5415 7.99826 44.5375 8.51061 45.4482H34.4981C35.1528 45.4482 35.6652 45.9605 35.6652 46.615C35.6652 47.2696 35.1528 47.7818 34.4981 47.7818H10.0192C10.8162 48.8348 11.727 49.8024 12.7517 50.6846H32.4487C33.1034 50.6846 33.6158 51.1968 33.6158 51.8514C33.6158 52.5059 33.1034 53.0182 32.4487 53.0182H16.1105C21.1486 55.7502 27.9515 56.0348 33.4165 53.3881C34.0143 53.1036 34.6974 53.3597 34.982 53.9289C35.2667 54.498 35.0105 55.2095 34.4412 55.4941C31.5664 56.8885 28.3215 57.6285 25.1051 57.6285Z" fill="#151616"/>
</g>
<defs>
<clipPath id="clip0_305_5642">
<rect width="121" height="72" fill="white"/>
</clipPath>
</defs>
</svg>
