<svg width="30" height="28" viewBox="0 0 30 28" fill="none" xmlns="http://www.w3.org/2000/svg">
<g id="Celliers" clip-path="url(#clip0_410_144)">
<g id="Group 8225">
<path id="Vector" d="M27.3934 27.9457H23.8266C22.7965 27.9457 21.9586 27.0928 21.9586 26.046V15.7253C21.9586 14.7095 22.2815 13.1897 22.6966 11.2667C23.2039 8.90944 23.8266 5.99391 23.988 3.17142C23.7728 3.00083 23.6498 2.74495 23.6498 2.4658V0.899474C23.6498 0.403212 24.0495 0 24.5492 0H26.6708C27.1628 0 27.5702 0.403212 27.5702 0.899474V2.4658C27.5702 2.73719 27.4472 2.99308 27.2319 3.16367C27.4011 5.94738 28.0237 8.87067 28.5234 11.2279C28.9308 13.1509 29.2613 14.6707 29.2613 15.6477V26.0382C29.2613 27.085 28.4234 27.938 27.3934 27.938V27.9457ZM24.6107 3.31875C24.4415 6.15674 23.8189 9.05677 23.3115 11.3985C22.9195 13.2052 22.589 14.7715 22.589 15.7175V26.0382C22.589 26.7361 23.1424 27.3021 23.8266 27.3021H27.3934C28.0775 27.3021 28.631 26.7361 28.631 26.0382V15.6477C28.631 15.4927 28.6233 15.3221 28.6002 15.136H25.2641V22.0681C25.2641 22.2465 25.1257 22.386 24.9489 22.386C24.7721 22.386 24.6337 22.2465 24.6337 22.0681V14.8181C24.6337 14.6397 24.7721 14.5001 24.9489 14.5001H28.5234C28.3927 13.6394 28.1621 12.5539 27.9084 11.3675C27.3857 8.93271 26.74 5.90861 26.5939 3.02409C26.5939 2.90003 26.6554 2.78372 26.763 2.72168C26.8399 2.68291 26.9398 2.58986 26.9398 2.4658V0.899474C26.9398 0.752146 26.8245 0.635835 26.6708 0.635835H24.5492C24.4031 0.635835 24.2801 0.752146 24.2801 0.899474V2.4658C24.2801 2.55109 24.3185 2.62863 24.3954 2.68291H25.5331C25.7099 2.68291 25.8483 2.82249 25.8483 3.00083C25.8483 3.17917 25.7099 3.31875 25.5331 3.31875H24.6107Z" fill="#595654" stroke="#595654" stroke-width="0.5"/>
<path id="Vector_2" d="M14.7295 26.993C7.73609 26.993 2.04358 21.3899 2.04358 14.4965C2.04358 7.60309 7.73609 2 14.7295 2C18.3161 2 21.7517 3.5007 24.1452 6.12342C24.253 6.24264 24.2458 6.42497 24.1236 6.53015C24.0014 6.63534 23.8146 6.62833 23.7068 6.50912C21.4211 4.01262 18.1508 2.58205 14.7295 2.58205C8.05953 2.57504 2.63296 7.92567 2.63296 14.4965C2.63296 21.0673 8.05953 26.418 14.7295 26.418C17.3889 26.418 19.9117 25.5835 22.0249 24.0126C22.1542 23.9144 22.3411 23.9425 22.4417 24.0687C22.5424 24.195 22.5136 24.3773 22.3842 24.4755C20.1633 26.1304 17.5183 27 14.7295 27V26.993ZM14.7295 25.0996C8.79266 25.0996 3.96983 20.345 3.96983 14.4965C3.96983 8.64797 8.79266 3.89341 14.7295 3.89341C18.3808 3.89341 21.7589 5.70266 23.7571 8.73212C23.8433 8.86536 23.8074 9.04067 23.6708 9.13184C23.5343 9.21599 23.3546 9.18093 23.2611 9.04769C21.3708 6.18654 18.1796 4.47546 14.7295 4.47546C9.12328 4.47546 4.55921 8.97756 4.55921 14.5035C4.55921 20.0295 9.12328 24.5316 14.7295 24.5316C17.4824 24.5316 20.0627 23.4656 21.9889 21.5231C22.1039 21.4109 22.2908 21.4039 22.4058 21.5231C22.5208 21.6353 22.528 21.8177 22.4058 21.9299C20.3646 23.9846 17.6405 25.1136 14.7224 25.1136L14.7295 25.0996ZM14.7295 24.1459C12.4799 24.1459 10.4098 23.3955 8.75672 22.1403C8.73516 22.1262 8.71359 22.1122 8.69203 22.0912C6.4064 20.324 4.94015 17.582 4.94015 14.5035C4.94015 11.425 6.4064 8.68303 8.69203 6.91585C8.71359 6.89481 8.73516 6.88079 8.75672 6.86676C10.4098 5.6115 12.4799 4.86115 14.7295 4.86115C18.4599 4.86115 21.8164 6.90182 23.4911 10.1837C23.563 10.324 23.5055 10.4993 23.3618 10.5694C23.218 10.6396 23.0383 10.5835 22.9664 10.4432C22.8658 10.2468 22.7652 10.0575 22.6502 9.87518H6.82328C6.47109 10.4642 6.1764 11.0884 5.96078 11.7546H22.8514C23.0168 11.7546 23.1461 11.8808 23.1461 12.0421C23.1461 12.2034 23.0168 12.3296 22.8514 12.3296H5.79546C5.64452 12.9397 5.55109 13.5708 5.52952 14.223H22.3411C22.5064 14.223 22.6358 14.3492 22.6358 14.5105C22.6358 14.6718 22.5064 14.798 22.3411 14.798H5.52952C5.55109 15.4432 5.63734 16.0743 5.78828 16.6774H22.1974C22.3627 16.6774 22.4921 16.8036 22.4921 16.9649C22.4921 17.1262 22.3627 17.2525 22.1974 17.2525H5.95359C6.16921 17.9187 6.45671 18.5568 6.81609 19.1459H22.1974C22.3627 19.1459 22.4921 19.2721 22.4921 19.4334C22.4921 19.5947 22.3627 19.7209 22.1974 19.7209H7.19703C7.70734 20.4362 8.31828 21.0743 9.00828 21.6143H20.4436C20.9971 21.1795 21.5074 20.6676 21.9602 20.0996C22.0608 19.9734 22.2477 19.9523 22.3771 20.0505C22.5064 20.1487 22.528 20.331 22.4274 20.4572C20.5586 22.8135 17.7483 24.1599 14.7224 24.1599L14.7295 24.1459ZM9.82766 22.1753C11.2436 23.0589 12.9255 23.5708 14.7224 23.5708C16.5192 23.5708 18.1796 23.0799 19.6242 22.1753H9.82766ZM7.19703 9.28611H22.2692C21.7589 8.56381 21.148 7.93268 20.4724 7.39271H9.01547C8.32547 7.93268 7.71453 8.57083 7.20422 9.28611H7.19703ZM9.82766 6.82468H19.6458C18.2083 5.92707 16.512 5.42917 14.7224 5.42917C12.9327 5.42917 11.2436 5.94109 9.82766 6.82468Z" fill="#595654" stroke="#595654" stroke-width="0.5"/>
</g>
</g>
<defs>
<clipPath id="clip0_410_144">
<rect width="29.2339" height="28" fill="white" transform="translate(0.0274658)"/>
</clipPath>
</defs>
</svg>
