<svg width="29" height="28" viewBox="0 0 29 28" fill="none" xmlns="http://www.w3.org/2000/svg">
<g id="Layer_1" clip-path="url(#clip0_305_5468)">
<path id="Vector" d="M15.6787 14.8095H12.9296C11.9082 14.8095 11.0741 14.0197 11.0741 13.0525V9.42566C11.0741 9.32088 11.1252 9.22417 11.2188 9.15969C11.3124 9.09522 11.4231 9.0791 11.5337 9.11133C13.27 9.63521 15.3808 9.62715 17.0661 9.11133C17.1682 9.0791 17.2874 9.09522 17.381 9.15969C17.4746 9.22417 17.5257 9.32088 17.5257 9.42566V13.0525C17.5257 14.0197 16.7001 14.8095 15.6873 14.8095H15.6787ZM11.772 9.86894V13.0606C11.772 13.665 12.2912 14.1567 12.9296 14.1567H15.6787C16.3001 14.1567 16.8193 13.657 16.8193 13.0606V9.86894C15.2362 10.2639 13.3807 10.2719 11.772 9.86894Z" fill="#595654" stroke="#595654" stroke-width="0.5"/>
<path id="Vector_2" d="M14.2959 10.041C12.4752 10.041 10.7193 9.61812 9.457 8.87141L6.13938 9.24807C5.11173 9.3604 3.99506 9.48595 2.77321 9.63133C2.15824 9.70402 1.55136 9.55204 1.06585 9.20842C0.588439 8.84498 0.321411 8.32294 0.321411 7.76126V4.70836C0.321411 4.15328 0.580347 3.64446 1.04967 3.27442C1.55136 2.92419 2.15015 2.77221 2.77321 2.83829C3.94651 2.97705 5.02272 3.096 6.018 3.20834L9.457 3.59821C10.7193 2.85811 12.4752 2.42859 14.2959 2.42859C16.1165 2.42859 17.8805 2.8515 19.1347 3.59821L22.8812 3.1753C23.7956 3.07617 24.7747 2.96384 25.8266 2.84489C26.4416 2.77881 27.0565 2.9308 27.5259 3.27442C28.0114 3.64446 28.2784 4.15989 28.2784 4.71496V7.76126C28.2784 8.32955 28.0033 8.85158 27.5259 9.20181C27.0565 9.53882 26.4416 9.69741 25.8266 9.63133C24.7504 9.50578 23.747 9.39344 22.8246 9.29432L19.1266 8.87802C17.8805 9.61812 16.1246 10.0476 14.2878 10.0476L14.2959 10.041ZM9.87777 8.4551C11.0268 9.12251 12.629 9.49917 14.2959 9.49917C15.9628 9.49917 17.7025 9.08947 18.8434 8.37581C18.9162 8.32955 18.9972 8.30973 19.0943 8.32294L22.9217 8.75246C23.8522 8.85819 24.8556 8.97053 25.9318 9.08947C26.3526 9.13573 26.7733 9.03 27.097 8.79211C27.4369 8.54101 27.6311 8.16435 27.6311 7.75465V4.70836C27.6311 4.29866 27.4369 3.92861 27.097 3.66429C26.7733 3.43301 26.3607 3.32728 25.9399 3.37354C24.888 3.49909 23.9008 3.60482 22.9864 3.70394L19.3856 4.10703V6.70398C19.3856 6.85596 19.2399 6.97491 19.0538 6.97491C18.8677 6.97491 18.722 6.85596 18.722 6.70398V4.01451C17.5892 3.3471 15.987 2.97045 14.304 2.97045C12.6209 2.97045 10.9135 3.38014 9.75639 4.09381C9.68356 4.14007 9.59455 4.15989 9.51364 4.14667L5.94518 3.74358C4.94989 3.63125 3.87369 3.5123 2.70039 3.37354C2.27961 3.32728 1.85884 3.43301 1.51899 3.6709C1.19532 3.92861 1.00921 4.29866 1.00921 4.70836V7.75465C1.00921 8.16435 1.20341 8.54762 1.53517 8.79872C1.86694 9.03 2.28771 9.13573 2.70848 9.08947C3.93033 8.95071 5.04699 8.82515 6.07464 8.70621L9.23852 8.34938V5.09162C9.23852 4.93964 9.38417 4.82069 9.57028 4.82069C9.75639 4.82069 9.90204 4.93964 9.90204 5.09162V8.4485L9.87777 8.4551Z" fill="#595654" stroke="#595654" stroke-width="0.5"/>
<path id="Vector_3" d="M14.2605 26.2114C14.0128 26.2114 13.8189 26.1152 13.8189 25.9922V25.2171H13.1727C12.6233 25.2171 12.171 24.9925 12.171 24.7145C12.171 24.5435 12.3433 24.3831 12.6233 24.2976L14.7452 23.4743H13.1727C12.6233 23.4743 12.171 23.2497 12.171 22.9718C12.171 22.8007 12.3433 22.6403 12.6233 22.5548L14.7345 21.7422H13.1619C12.6126 21.7422 12.1602 21.5177 12.1602 21.2397C12.1602 21.0686 12.3325 20.9136 12.6126 20.8227L14.7345 19.9994H13.1619C12.6126 19.9994 12.1602 19.7749 12.1602 19.4969C12.1602 19.3258 12.3325 19.1654 12.6126 19.0799L14.7237 18.2673H13.1511C12.6018 18.2673 12.1494 18.0428 12.1494 17.7648C12.1494 17.5937 12.3218 17.4387 12.6018 17.3478L14.7237 16.5245H13.1511C12.6018 16.5245 12.1494 16.3 12.1494 16.022C12.1494 15.8509 12.3218 15.6959 12.6018 15.605L14.5514 14.8566C14.7452 14.7817 15.0253 14.7978 15.1761 14.894C15.3269 14.9902 15.2946 15.1292 15.1007 15.2041L13.1188 15.9632C13.0542 15.9846 13.0326 16.0006 13.0326 16.022C13.0326 16.0594 13.0865 16.0861 13.1511 16.0861H16.0055C16.1886 16.0861 16.3609 16.145 16.4255 16.2358C16.4902 16.3267 16.4255 16.4229 16.2747 16.4817L13.108 17.7113C13.0434 17.7327 13.0219 17.7541 13.0219 17.7701C13.0219 17.8075 13.0757 17.8343 13.1404 17.8343H15.9947C16.1886 17.8343 16.3501 17.8931 16.4148 17.984C16.4794 18.0748 16.4148 18.1711 16.264 18.2299L13.0973 19.4488C13.0434 19.4701 13.0111 19.4862 13.0111 19.5076C13.0111 19.545 13.065 19.5717 13.1296 19.5717H15.9839C16.167 19.5717 16.3394 19.6305 16.404 19.7214C16.4686 19.8123 16.404 19.9085 16.2532 19.9673L13.0865 21.1969C13.0219 21.2183 13.0003 21.2397 13.0003 21.2557C13.0003 21.2931 13.0542 21.3198 13.1188 21.3198H15.9731C16.167 21.3198 16.3286 21.3787 16.3932 21.4695C16.4578 21.5604 16.3932 21.6566 16.2424 21.7155L13.0757 22.9343C13.0219 22.9557 12.9896 22.9718 12.9896 22.9931C12.9896 23.0306 13.0434 23.0573 13.108 23.0573H15.9624C16.1455 23.0573 16.3178 23.1161 16.3825 23.207C16.4471 23.2979 16.3825 23.3941 16.2317 23.4529L13.065 24.6825C13.0111 24.7038 12.9788 24.7199 12.9788 24.7413C12.9788 24.7787 13.0326 24.8054 13.0973 24.8054H14.1851C14.4329 24.8054 14.6268 24.9016 14.6268 25.0246V26.019C14.6268 26.1419 14.4329 26.2381 14.1851 26.2381L14.2605 26.2114Z" fill="#595654" stroke="#595654" stroke-width="0.5"/>
</g>
<defs>
<clipPath id="clip0_305_5468">
<rect width="27.957" height="26.6667" fill="white" transform="translate(0.321411 0.523804)"/>
</clipPath>
</defs>
</svg>
